<?xml version="1.0" standalone="no"?>
<!DOCTYPE svg PUBLIC "-//W3C//DTD SVG 20010904//EN"
 "http://www.w3.org/TR/2001/REC-SVG-20010904/DTD/svg10.dtd">
<svg version="1.0" xmlns="http://www.w3.org/2000/svg"
 width="64.000000pt" height="64.000000pt" viewBox="0 0 64.000000 64.000000"
 preserveAspectRatio="xMidYMid meet">

<g transform="translate(0.000000,64.000000) scale(0.100000,-0.100000)"
fill="#000000" stroke="none">
<path d="M232 609 c-107 -54 -133 -193 -54 -289 20 -23 38 -35 58 -36 74 -4
69 -2 49 -24 -22 -25 -11 -39 17 -21 14 9 23 10 31 2 15 -15 40 -14 35 1 -3 7
18 26 45 43 87 52 117 158 73 248 -42 85 -164 122 -254 76z m58 -23 c0 -7 -12
-22 -27 -31 -16 -10 -37 -29 -49 -43 -30 -36 -51 -20 -26 20 32 50 102 87 102
54z m-100 -136 c0 -11 -7 -20 -15 -20 -8 0 -15 9 -15 20 0 11 7 20 15 20 8 0
15 -9 15 -20z"/>
<path d="M534 519 c-3 -6 3 -17 15 -25 51 -36 66 -124 32 -180 -22 -37 -76
-64 -126 -64 -25 0 -35 -4 -33 -12 7 -22 66 -21 113 2 82 40 115 132 76 213
-24 49 -65 84 -77 66z"/>
<path d="M32 435 c-29 -64 -2 -149 57 -180 34 -17 87 -20 96 -5 6 9 -8 14 -28
11 -22 -4 -79 32 -97 61 -24 39 -25 63 -5 102 18 35 18 36 2 36 -8 0 -19 -11
-25 -25z"/>
<path d="M310 198 c-1 -13 -7 -34 -15 -48 -15 -27 -20 -80 -7 -80 10 0 42 92
42 124 0 14 -4 26 -10 26 -5 0 -10 -10 -10 -22z"/>
<path d="M290 30 c0 -5 5 -10 10 -10 6 0 10 5 10 10 0 6 -4 10 -10 10 -5 0
-10 -4 -10 -10z"/>
</g>
</svg>
